<svg width="100" height="100" viewBox="0 0 100 100" fill="none" xmlns="http://www.w3.org/2000/svg">
<path d="M79.4323 73.2267L86.472 80.8509L75.6123 90L68.9001 81.9401C62.9336 85.4618 56.4033 87.2226 49.309 87.2226C42.433 87.2226 35.9209 85.4073 29.7725 81.7767C23.2603 77.9646 18.3671 72.8999 15.0928 66.5827C12.3643 61.2457 11 55.4005 11 49.047C11 41.7858 12.7827 35.0874 16.348 28.9517C19.9133 22.7434 24.7701 17.9873 30.9185 14.6835C36.6667 11.5612 42.9787 10 49.8547 10C61.6785 10 71.283 14.2296 78.6683 22.6889C84.8894 29.8049 88 38.246 88 48.0123C88 57.7059 85.1441 66.1107 79.4323 73.2267ZM53.129 64.6222L63.8795 55.582L69.2821 61.627C71.3922 57.5607 72.4472 53.0769 72.4472 48.1756C72.4472 40.9508 69.9915 34.9966 65.0801 30.3131C60.678 26.2106 55.5119 24.1593 49.5819 24.1593C45.2889 24.1593 41.3052 25.2848 37.6308 27.5357C33.8835 29.8593 31.0276 32.9998 29.0631 36.9571C27.3896 40.3336 26.5528 44.2183 26.5528 48.6113C26.5528 55.7273 28.7902 61.5906 33.2651 66.2015C37.6308 70.776 42.8696 73.0633 48.9816 73.0633C52.6197 73.0633 55.6938 72.2464 58.2041 70.6127L53.129 64.6222Z" fill="#1C1D21"/>
</svg>
